<svg xmlns="http://www.w3.org/2000/svg" viewBox="0 0 411.95 265.34"><defs><style>.cls-1{fill:#201600;}</style></defs><title>money-icon-black</title><g id="Слой_2" data-name="Слой 2"><g id="Слой_1-2" data-name="Слой 1"><path d="M152.7,265H16.21C5.43,265,0,259.58,0,248.78q0-112.49,0-225c0-4.66.16-9.32.36-14A9.55,9.55,0,0,1,10,.46C18.51.27,27,.05,35.48.05q180-.06,360,0c9.53,0,15.69,5.74,15.76,15.48.23,30.33.2,60.66.3,91q.23,65.48.44,130.93c0,6-.31,12-.64,17.93-.28,5.22-5,8.91-11.25,8.94-31.49.15-63,.23-94.45.41-28.81.16-57.62.48-86.43.61-22.16.11-44.32,0-66.48,0Zm229.89-68.25V67.2c-2.77-.71-5.85-1.35-8.83-2.28-16.44-5.12-23.68-18-27.28-33.45-1-4.32-2.87-4.68-6.41-4.68q-135,.11-269.91,0c-4.23,0-5.82,1-6,5.45-.54,15.25-8.66,25.55-22.36,31.41C37,65.68,31.66,66.5,26,68v5q0,59.47,0,119c0,7.51,0,7.51,7.07,9.16,17.18,4,28.87,15,30.78,30.1,1.08,8.63,2.67,7.16,8.82,7.14,48.13-.18,96.26-.48,144.38-.61,38.66-.1,77.31,0,116,0,2.85,0,5.6.49,5.75-4,.64-18,11.59-27.93,27.45-33.44C371.18,198.65,376.54,198.07,382.59,196.78Z"/><path class="cls-1" d="M276.05,122.17c.77.83.87,1,1,1,2.82.36,7-.29,8.17,1.28A21.73,21.73,0,0,1,289,135.61c.82,14.81-1.41,29.15-8.85,42.29-5.37,9.48-9.47,11-19.92,7.86a7,7,0,0,0-2.59.3l-.43,1.42c2.56,1.05,5.09,2.16,7.67,3.14,2.07.78,3.54,1.45,2.31,4.28-6.26,14.3-26,25-41.29,22.18a16,16,0,0,1-1.93-.47c-6.16-2-9.66-6.8-8.17-11.26,1.57-4.69,8.4-7.65,13.9-5.74a71.33,71.33,0,0,1,7.63,3.69c7.34,3.61,13.34,1.53,18.29-7.43-2.32,1-3.72,1.34-4.74,2.15-6.61,5.22-7,5.34-14.54,1.16-5.86-3.26-11.77-4.08-18.17-1.53-1.13.46-3.81-.33-4.3-1.29-4.86-9.56-.4-28.84,15-29.86,5-.33,9.53,1.08,12.75,5.37a27.67,27.67,0,0,0,3.06,2.95c1.09-4.64-1.67-6.85-4.21-8.22-4.47-2.43-4.15-5-2.1-8.92,1.81-3.45,4.63-7.15.68-12.74a44.28,44.28,0,0,0-1.54,5.61c-.85,7-4.64,11.14-11.45,13.12a35.67,35.67,0,0,0-8.43,4.14c-3.2,2-4.84,1.19-5.77-2.28-2.13-7.91-2.26-15.81.62-23.5.71-1.9,2.74-4.45,4.39-4.63,5.76-.65,9.81-3.87,13.74-7.51,9-8.35,18.74-7.37,24.81,3.29,4,7,8.91,13.88,7.86,22.69-.27,2.26-.73,4.51-1.1,6.77l1.9.48c.84-2.63,1.1-5.7,2.67-7.77s4.34-2.87,7.42-4.75c-9.67-1-10.11-9.57-14-15.36-2.74-4.05-5.64-8.42-9.51-11.2-7.29-5.24-14.3-3.77-22,3.15a43,43,0,0,1-6.6,5.26c-5,3-9.91,1.06-10.34-4.67-1.31-17.2-2.83-34.58,8.49-49.7.38-.51.24-1.41.55-3.56l-7.22,5.83c-.7-1.5-1.7-2.63-1.64-3.69.53-8.59.76-17.25,2.1-25.72,1-6.28,6-10.31,10.64-10.38,5.35-.08,10.34,3.78,12.63,9.72a19.47,19.47,0,0,0,1.22,2.62c.12.21.59.21.89.31,3.65-5.86,5.22-6.56,10.49-1.46s9.41,11.46,13.88,17.38c.62.83.32,2.36.57,4.84l-9.16-5L254,70.18a24.67,24.67,0,0,0,3.54,3.67,59.52,59.52,0,0,1,20.6,24,62.59,62.59,0,0,1,4.67,15.11C283.69,117.53,280.66,120.52,276.05,122.17Zm-2.6-4.16c-2.08-4.14-4-7.54-5.53-11.11-4.16-9.81-4.51-10.1-14.94-9.47-7.13.43-9.24-1.55-10.1-9-.19-1.6-1.16-3.12-1.76-4.67l-2.1.64a48.19,48.19,0,0,0,1.23,7.35c1.09,3.42.95,5.79-2.6,7.9-1.93,1.16-2.9,3.93-4.31,6l1.62,1.23c1.22-1.17,2.26-2.69,3.71-3.43a27.24,27.24,0,0,1,7.6-2.73c2.86-.48,5.91.18,8.77-.3,4.08-.68,6.73.29,8.17,4.42a62.62,62.62,0,0,0,4.5,10.51C268.83,117.27,270.5,120.06,273.45,118Zm-27-43.5-1.36.12c-2.59-3.65-5-7.41-7.84-10.89A6.39,6.39,0,0,0,233,61.36c-5.36,0-6.69-3.2-6.9-7.68,0-.63-.84-1.22-1.93-2.67V69.74a4.56,4.56,0,0,0,1.64-.48c7.05-5.27,7.05-5.29,13.08,1,1,1.08,1.9,2.46,3.14,3.16S244.93,74.18,246.41,74.51Z"/><path class="cls-1" d="M188,65.23c2.08,1.33,3,2.41,3.84,2.37,5.26-.23,7.71,3.58,7.89,7.39a237.74,237.74,0,0,1-.67,27.73c-.25,3.64-2.37,5.81-6.56,3.1-1.62-1.06-3.91-1.08-5.89-1.58l-.73,1.46c1,.78,1.86,2.06,2.94,2.25a8,8,0,0,1,7,7.45c1.17,12.68,2,25.4,2.6,38.12a28,28,0,0,1-1.43,9.31c-1.43,4.7-4.07,8.4-9.73,8.52a26.41,26.41,0,0,0-4.54,1c4.06,3.31,7.3,2.24,10.42.92,4.68-2,5.42-1.69,6.39,3.49a47.74,47.74,0,0,1-5,31.87c-3.13,5.93-8.41,8.52-15,7.55-6.19-.91-10-4.85-11.88-10.76-2.41-7.78-1.1-14.75,4.61-20.74,1-1.05,1.89-2.22,2.82-3.35.06-.08-.06-.31-.26-1.15-4,1.3-7.65.77-10.12-3.65-.24.83-1,1.93-.65,2.44,2.52,4.35,1.8,8.53,0,12.9a16.84,16.84,0,0,0-.9,5.86c-.21,7.42-4.11,10.19-11,7.11-3.09-1.39-6.39-3.54-8.24-6.26-7.64-11.26-12.75-23.58-13.5-37.41a10.35,10.35,0,0,1,5.66-10.27c1.17-.67,2.06-1.81,4.12-3.66-5.2-.69-7.12,2.17-9.55,4a43.52,43.52,0,0,1-4,2.36c-.5-1.44-1.36-2.86-1.45-4.33-.39-6.13-.68-12.27-.72-18.41a20.74,20.74,0,0,1,1.18-7.3c1.84-4.94,6.94-5.81,10.71-2.08.68.67,1.42,1.29,2.13,1.94l1.52-.66c-.58-1.4-.79-3.63-1.78-4.05-7.93-3.4-6.78-10.11-6.17-16.46,1-10.51,5.7-19,14.58-25,2.34-1.57,5.16-3.33,7.21.36,1.69,3,6.31,5.48,1.38,10s-7.24,10.75-5.12,17.69c.43,1.41,1.77,2.53,2.68,3.78l1.2-.71a17.8,17.8,0,0,0-.49-3.12c-2.46-7,1.21-12.17,5.13-17.27a4,4,0,0,1,1.21-.86c4.12-2.26,16.82-.14,20.1,3.29a6.2,6.2,0,0,0,1.58.88l1.35-.91c-1.22-1.89-3.08-3.66-3.49-5.72-.47-2.31.37-4.87.78-8.53-1.88,1.58-3.2,2.54-4.34,3.68-5.35,5.35-11.49,5.25-16.53-.32S153,67,156.59,60.22c5.26-9.77,13.39-16.08,24.5-17.87,9.31-1.49,18.24,6.91,17.77,16.4-.17,3.44-.83,6.38-5.56,5.35C192.09,63.84,190.65,64.63,188,65.23ZM149.64,182.91l2.86-.75a37.79,37.79,0,0,0-1.21-5c-2.32-6-1.46-9.59,3.76-13.47,3.73-2.77,7.65-5.29,11.48-7.93,5.51-3.77,10-8.35,10.92-15.3.25-1.83-.42-3.79-.67-5.7l-1.74.14q-1.38,4.8-2.75,9.6l-1.59.53c-2.59-9.81-15.37-12.37-15.24-24.37-1.22,1.11-2,2-2.12,2.94-.56,4.5,1.65,7.81,4.57,11a117.37,117.37,0,0,1,9,11.69c1.77,2.53.71,4.6-1.82,6.2-3.79,2.39-7.54,4.85-11.19,7.45-6.7,4.77-6.65,4.82-10.93-2.41-.21-.37-.8-.52-1.6-1-2.24,4.13-.48,7.1,2.55,9.41,2.16,1.66,2.91,3.1,2.88,6.09C146.74,175.65,148.6,179.28,149.64,182.91ZM180.3,54.3l-1.19-1.12L165,63.73l.44,1.45c2-.56,4.29-.72,6-1.76C175.26,61.16,178.74,58.45,180.3,54.3Z"/><path d="M331.87,155.52c-14-.15-25.3-10.81-25.22-23.78.08-14.11,11.57-25.77,25.24-25.62,14.57.16,25.6,11.15,25.32,25.26A24.69,24.69,0,0,1,331.87,155.52Z"/><path d="M80.18,155.53c-13.91-.1-25-11.07-24.76-24.59a25.15,25.15,0,0,1,24.8-24.86,24.81,24.81,0,0,1,25,25.08A24.52,24.52,0,0,1,80.18,155.53Z"/></g></g></svg>